<svg xmlns="http://www.w3.org/2000/svg" version="1.1" xmlns:xlink="http://www.w3.org/1999/xlink"
	xmlns:svgjs="http://svgjs.com/svgjs" width="1440" height="560" preserveAspectRatio="none" viewBox="0 0 1440 560">
	<g mask="url(&quot;#SvgjsMask1867&quot;)" fill="none">
		<rect width="1440" height="560" x="0" y="0" fill="url(#SvgjsLinearGradient1868)"></rect>
		<g transform="translate(0, 0)" stroke-linecap="round">
			<path d="M260 239.84 L260 320.15" stroke-width="15" stroke="rgba(255, 255, 255, 1)"></path>
			<path d="M280 255.06 L280 304.94" stroke-width="15" stroke="rgba(141, 141, 141, 1)"></path>
			<path d="M300 146.87 L300 413.13" stroke-width="15" stroke="rgba(255, 255, 255, 1)"></path>
			<path d="M320 111.72 L320 448.27" stroke-width="15" stroke="rgba(255, 255, 255, 1)"></path>
			<path d="M340 120.21 L340 439.79" stroke-width="15" stroke="rgba(141, 141, 141, 1)"></path>
			<path d="M360 172.52 L360 387.48" stroke-width="15" stroke="rgba(255, 255, 255, 1)"></path>
			<path d="M380 214.51 L380 345.49" stroke-width="15" stroke="rgba(141, 141, 141, 1)"></path>
			<path d="M400 242 L400 318" stroke-width="15" stroke="rgba(141, 141, 141, 1)"></path>
			<path d="M420 107.95 L420 452.05" stroke-width="15" stroke="rgba(141, 141, 141, 1)"></path>
			<path d="M440 213.61 L440 346.39" stroke-width="15" stroke="rgba(255, 255, 255, 1)"></path>
			<path d="M460 143.62 L460 416.38" stroke-width="15" stroke="rgba(141, 141, 141, 1)"></path>
			<path d="M480 252.07 L480 307.93" stroke-width="15" stroke="rgba(141, 141, 141, 1)"></path>
			<path d="M500 244.45 L500 315.55" stroke-width="15" stroke="rgba(141, 141, 141, 1)"></path>
			<path d="M520 124.81 L520 435.19" stroke-width="15" stroke="rgba(141, 141, 141, 1)"></path>
			<path d="M540 140.39 L540 419.61" stroke-width="15" stroke="rgba(141, 141, 141, 1)"></path>
			<path d="M560 190.47 L560 369.53" stroke-width="15" stroke="rgba(141, 141, 141, 1)"></path>
			<path d="M580 257.81 L580 302.19" stroke-width="15" stroke="rgba(255, 255, 255, 1)"></path>
			<path d="M600 218.94 L600 341.06" stroke-width="15" stroke="rgba(255, 255, 255, 1)"></path>
			<path d="M620 238.56 L620 321.44" stroke-width="15" stroke="rgba(255, 255, 255, 1)"></path>
			<path d="M640 223.38 L640 336.62" stroke-width="15" stroke="rgba(141, 141, 141, 1)"></path>
			<path d="M660 225.13 L660 334.87" stroke-width="15" stroke="rgba(255, 255, 255, 1)"></path>
			<path d="M680 113.93 L680 446.07" stroke-width="15" stroke="rgba(255, 255, 255, 1)"></path>
			<path d="M700 147.97 L700 412.02" stroke-width="15" stroke="rgba(141, 141, 141, 1)"></path>
			<path d="M720 148.3 L720 411.7" stroke-width="15" stroke="rgba(255, 255, 255, 1)"></path>
			<path d="M740 138.16 L740 421.85" stroke-width="15" stroke="rgba(141, 141, 141, 1)"></path>
			<path d="M760 207.82 L760 352.18" stroke-width="15" stroke="rgba(255, 255, 255, 1)"></path>
			<path d="M780 218.56 L780 341.44" stroke-width="15" stroke="rgba(141, 141, 141, 1)"></path>
			<path d="M800 212.63 L800 347.38" stroke-width="15" stroke="rgba(255, 255, 255, 1)"></path>
			<path d="M820 115.5 L820 444.5" stroke-width="15" stroke="rgba(141, 141, 141, 1)"></path>
			<path d="M840 253.69 L840 306.31" stroke-width="15" stroke="rgba(255, 255, 255, 1)"></path>
			<path d="M860 172.75 L860 387.25" stroke-width="15" stroke="rgba(255, 255, 255, 1)"></path>
			<path d="M880 154.45 L880 405.55" stroke-width="15" stroke="rgba(255, 255, 255, 1)"></path>
			<path d="M900 208.84 L900 351.16" stroke-width="15" stroke="rgba(141, 141, 141, 1)"></path>
			<path d="M920 177.9 L920 382.1" stroke-width="15" stroke="rgba(141, 141, 141, 1)"></path>
			<path d="M940 137.34 L940 422.65" stroke-width="15" stroke="rgba(255, 255, 255, 1)"></path>
			<path d="M960 221.82 L960 338.18" stroke-width="15" stroke="rgba(141, 141, 141, 1)"></path>
			<path d="M980 159.57 L980 400.43" stroke-width="15" stroke="rgba(141, 141, 141, 1)"></path>
			<path d="M1000 116.01 L1000 443.99" stroke-width="15" stroke="rgba(255, 255, 255, 1)"></path>
			<path d="M1020 205.56 L1020 354.44" stroke-width="15" stroke="rgba(255, 255, 255, 1)"></path>
			<path d="M1040 209.44 L1040 350.56" stroke-width="15" stroke="rgba(141, 141, 141, 1)"></path>
			<path d="M1060 156.28 L1060 403.72" stroke-width="15" stroke="rgba(255, 255, 255, 1)"></path>
			<path d="M1080 135.16 L1080 424.84" stroke-width="15" stroke="rgba(255, 255, 255, 1)"></path>
			<path d="M1100 242.87 L1100 317.13" stroke-width="15" stroke="rgba(141, 141, 141, 1)"></path>
			<path d="M1120 246.1 L1120 313.9" stroke-width="15" stroke="rgba(141, 141, 141, 1)"></path>
			<path d="M1140 198.14 L1140 361.86" stroke-width="15" stroke="rgba(141, 141, 141, 1)"></path>
			<path d="M1160 207.26 L1160 352.74" stroke-width="15" stroke="rgba(141, 141, 141, 1)"></path>
			<path d="M1180 112.65 L1180 447.35" stroke-width="15" stroke="rgba(255, 255, 255, 1)"></path>
		</g>
	</g>
	<defs>
		<mask id="SvgjsMask1867">
			<rect width="1440" height="560" fill="#ffffff"></rect>
		</mask>
		<linearGradient x1="15.28%" y1="-39.29%" x2="84.72%" y2="139.29%" gradientUnits="userSpaceOnUse"
			id="SvgjsLinearGradient1868">
			<stop stop-color="rgba(0, 0, 0, 1)" offset="0.55"></stop>
			<stop stop-color="rgba(107, 107, 107, 1)" offset="1"></stop>
		</linearGradient>
	</defs>
</svg>
