<svg xmlns="http://www.w3.org/2000/svg" version="1.1" xmlns:xlink="http://www.w3.org/1999/xlink"
	xmlns:svgjs="http://svgjs.com/svgjs" width="1440" height="560" preserveAspectRatio="none" viewBox="0 0 1440 560">
	<g mask="url(&quot;#SvgjsMask3419&quot;)" fill="none">
		<rect width="1440" height="560" x="0" y="0" fill="url(#SvgjsLinearGradient3420)"></rect>
		<g transform="translate(0, 0)" stroke-linecap="round">
			<path d="M270.5 219.45 L270.5 340.55" stroke-width="23.25" stroke="rgba(255, 255, 255, 1)"></path>
			<path d="M301.5 169.14 L301.5 390.86" stroke-width="23.25" stroke="rgba(141, 141, 141, 1)"></path>
			<path d="M332.5 187.59 L332.5 372.4" stroke-width="23.25" stroke="rgba(141, 141, 141, 1)"></path>
			<path d="M363.5 240.92 L363.5 319.08" stroke-width="23.25" stroke="rgba(255, 255, 255, 1)"></path>
			<path d="M394.5 217.89 L394.5 342.11" stroke-width="23.25" stroke="rgba(255, 255, 255, 1)"></path>
			<path d="M425.5 131.55 L425.5 428.45" stroke-width="23.25" stroke="rgba(141, 141, 141, 1)"></path>
			<path d="M456.5 115.82 L456.5 444.18" stroke-width="23.25" stroke="rgba(255, 255, 255, 1)"></path>
			<path d="M487.5 196.5 L487.5 363.5" stroke-width="23.25" stroke="rgba(141, 141, 141, 1)"></path>
			<path d="M518.5 217.28 L518.5 342.72" stroke-width="23.25" stroke="rgba(255, 255, 255, 1)"></path>
			<path d="M549.5 217.78 L549.5 342.23" stroke-width="23.25" stroke="rgba(255, 255, 255, 1)"></path>
			<path d="M580.5 248.84 L580.5 311.16" stroke-width="23.25" stroke="rgba(141, 141, 141, 1)"></path>
			<path d="M611.5 145.75 L611.5 414.25" stroke-width="23.25" stroke="rgba(141, 141, 141, 1)"></path>
			<path d="M642.5 180.67 L642.5 379.33" stroke-width="23.25" stroke="rgba(255, 255, 255, 1)"></path>
			<path d="M673.5 218.09 L673.5 341.9" stroke-width="23.25" stroke="rgba(255, 255, 255, 1)"></path>
			<path d="M704.5 126.11 L704.5 433.89" stroke-width="23.25" stroke="rgba(255, 255, 255, 1)"></path>
			<path d="M735.5 220.94 L735.5 339.06" stroke-width="23.25" stroke="rgba(255, 255, 255, 1)"></path>
			<path d="M766.5 170.06 L766.5 389.94" stroke-width="23.25" stroke="rgba(141, 141, 141, 1)"></path>
			<path d="M797.5 121.42 L797.5 438.58" stroke-width="23.25" stroke="rgba(141, 141, 141, 1)"></path>
			<path d="M828.5 143.89 L828.5 416.11" stroke-width="23.25" stroke="rgba(255, 255, 255, 1)"></path>
			<path d="M859.5 141.16 L859.5 418.85" stroke-width="23.25" stroke="rgba(141, 141, 141, 1)"></path>
			<path d="M890.5 251.47 L890.5 308.52" stroke-width="23.25" stroke="rgba(255, 255, 255, 1)"></path>
			<path d="M921.5 185.53 L921.5 374.47" stroke-width="23.25" stroke="rgba(141, 141, 141, 1)"></path>
			<path d="M952.5 184.27 L952.5 375.73" stroke-width="23.25" stroke="rgba(141, 141, 141, 1)"></path>
			<path d="M983.5 135.56 L983.5 424.44" stroke-width="23.25" stroke="rgba(141, 141, 141, 1)"></path>
			<path d="M1014.5 117.42 L1014.5 442.58" stroke-width="23.25" stroke="rgba(255, 255, 255, 1)"></path>
			<path d="M1045.5 161.89 L1045.5 398.11" stroke-width="23.25" stroke="rgba(255, 255, 255, 1)"></path>
			<path d="M1076.5 170.36 L1076.5 389.64" stroke-width="23.25" stroke="rgba(255, 255, 255, 1)"></path>
			<path d="M1107.5 143.67 L1107.5 416.33" stroke-width="23.25" stroke="rgba(255, 255, 255, 1)"></path>
			<path d="M1138.5 237.94 L1138.5 322.06" stroke-width="23.25" stroke="rgba(255, 255, 255, 1)"></path>
			<path d="M1169.5 235.94 L1169.5 324.06" stroke-width="23.25" stroke="rgba(255, 255, 255, 1)"></path>
		</g>
	</g>
	<defs>
		<mask id="SvgjsMask3419">
			<rect width="1440" height="560" fill="#ffffff"></rect>
		</mask>
		<linearGradient x1="15.28%" y1="-39.29%" x2="84.72%" y2="139.29%" gradientUnits="userSpaceOnUse"
			id="SvgjsLinearGradient3420">
			<stop stop-color="rgba(0, 0, 0, 1)" offset="0"></stop>
			<stop stop-color="rgba(4, 34, 0, 1)" offset="1"></stop>
		</linearGradient>
	</defs>
</svg>
