<svg xmlns="http://www.w3.org/2000/svg" version="1.1" xmlns:xlink="http://www.w3.org/1999/xlink"
	xmlns:svgjs="http://svgjs.com/svgjs" width="1440" height="560" preserveAspectRatio="none" viewBox="0 0 1440 560">
	<g mask="url(&quot;#SvgjsMask1000&quot;)" fill="none">
		<rect width="1440" height="560" x="0" y="0" fill="#0e2a47"></rect>
		<path
			d="M -314.34039790632255,471 C -218.34,396.8 -26.34,97.8 165.65960209367745,100 C 357.66,102.2 453.66,459.6 645.6596020936774,482 C 837.66,504.4 933.66,228.2 1125.6596020936774,212 C 1317.66,195.8 1542.79,405.4 1605.6596020936774,401 C 1668.53,396.6 1473.13,232.2 1440,190"
			stroke="rgba(51, 121, 194, 0.58)" stroke-width="2"></path>
		<path
			d="M -638.0066242333285,480 C -542.01,425.6 -350.01,243.4 -158.0066242333285,208 C 33.99,172.6 129.99,304.4 321.99337576667153,303 C 513.99,301.6 609.99,204.2 801.9933757666715,201 C 993.99,197.8 1154.39,285.8 1281.9933757666715,287 C 1409.59,288.2 1408.4,223 1440,207"
			stroke="rgba(51, 121, 194, 0.58)" stroke-width="2"></path>
		<path
			d="M -13.551346249543428,456 C 82.45,413.8 274.45,273.8 466.4486537504566,245 C 658.45,216.2 754.45,310.2 946.4486537504565,312 C 1138.45,313.8 1234.45,246.6 1426.4486537504565,254 C 1618.45,261.4 1903.74,365.8 1906.4486537504565,349 C 1909.16,332.2 1533.29,205.8 1440,170"
			stroke="rgba(51, 121, 194, 0.58)" stroke-width="2"></path>
		<path
			d="M -175.87719851475686,346 C -79.88,309.6 112.12,162 304.12280148524314,164 C 496.12,166 592.12,333 784.1228014852431,356 C 976.12,379 1072.12,273.2 1264.1228014852431,279 C 1456.12,284.8 1708.95,422.6 1744.1228014852431,385 C 1779.3,347.4 1500.82,149.8 1440,91"
			stroke="rgba(51, 121, 194, 0.58)" stroke-width="2"></path>
	</g>
	<defs>
		<mask id="SvgjsMask1000">
			<rect width="1440" height="560" fill="#ffffff"></rect>
		</mask>
	</defs>
</svg>
